<?xml version="1.0" encoding="UTF-8"?><svg id="b" xmlns="http://www.w3.org/2000/svg" viewBox="0 0 1260.22 195.99"><g id="c"><g id="d"><path d="M76.67,34.6c8.4-18.9,23.8-30.1,47.6-30.1,20.6,0,34.56,9.08,44.69,21.6,4.47,5.53,4.23,13.5-.48,18.82l-22.16,25.03c-4.9-12.95-14.7-26.95-33.6-26.95-25.2,0-35,21-35,58.45v66.5h0c-25.71,0-46.55-20.84-46.55-46.55v-60.9c0-14.35-.7-36.05-2.1-49.7h21.99c13.45,0,24.63,10.38,25.61,23.8h0Z"/><path d="M258.62,4.5c68.6,0,88.55,22.4,88.55,81.2v24.15c0,19.6,3.5,27.3,15.4,27.3,2.45,0,4.55-.35,6.65-.7v8.78c0,14.76-11.88,26.87-26.64,26.92-.1,0-.21,0-.31,0-19.95,0-30.1-8.75-35-25.2-12.95,18.9-36.4,27.3-65.8,27.3-46.55,0-69.3-19.6-69.3-51.8s25.2-50.75,70-50.75c26.25,0,45.85,5.95,58.8,15.75,0-38.85-11.9-50.4-47.95-50.4-27.3,0-44.8,11.9-54.95,26.95h0c-14.85-18.74-6.47-46.78,16.38-53.84,12.16-3.76,26.58-5.66,44.18-5.66ZM308.62,110.2c-8.75-5.6-23.1-10.15-42.7-10.15-28,0-39.9,8.75-39.9,22.4,0,14.35,10.85,22.4,37.45,22.4,31.15,0,43.05-14,45.15-34.65Z"/><path d="M432.13,38.1c9.45-17.15,26.25-27.3,51.8-27.3,30.8,0,47.6,10.15,56.35,33.6,10.15-22.05,30.1-33.6,60.2-33.6,51.1,0,67.9,26.95,67.9,86.8v76.65h0c-25.9,0-46.9-21-46.9-46.9v-27.3c0-39.9-9.1-53.9-34.3-53.9-23.8,0-36.05,14.7-36.05,58.8v69.3h0c-25.9,0-46.9-21-46.9-46.9v-27.3c0-39.9-9.1-53.9-34.65-53.9-23.45,0-36.05,14.7-36.05,58.8v69.3h0c-25.71,0-46.55-20.84-46.55-46.55v-60.55c0-14.7-1.05-36.4-2.1-50.05h25.17c11.78,0,21.49,9.24,22.08,21h0Z"/><path d="M919.8,39.15c10.15-18.2,28.35-28.35,58.8-28.35,52.15,0,69.3,27.65,69.3,87.15v76.3h0c-25.9,0-46.9-21-46.9-46.9v-27.3c0-39.2-10.15-53.55-39.55-53.55-26.6,0-40.6,14-40.6,58.8v68.95h0c-25.71,0-46.55-20.84-46.55-46.55v-61.95c0-14.35-1.05-35-2.1-48.65h24.11c12.42,0,22.71,9.65,23.5,22.05h0Z"/><path d="M1149.62,4.5c68.6,0,88.55,22.4,88.55,81.2v24.15c0,19.6,3.5,27.3,15.4,27.3,2.45,0,4.55-.35,6.65-.7v8.78c0,14.76-11.88,26.87-26.64,26.92-.1,0-.21,0-.31,0-19.95,0-30.1-8.75-35-25.2-12.95,18.9-36.4,27.3-65.8,27.3-46.55,0-69.3-19.6-69.3-51.8s25.2-50.75,70-50.75c26.25,0,45.85,5.95,58.8,15.75,0-38.85-11.9-50.4-47.95-50.4-27.3,0-44.8,11.9-54.95,26.95h0c-14.85-18.74-6.47-46.78,16.38-53.84,12.16-3.76,26.58-5.66,44.18-5.66ZM1191.27,110.2c-8.75-5.6-23.1-10.15-42.7-10.15-28,0-39.9,8.75-39.9,22.4,0,14.35,10.85,22.4,37.45,22.4,31.15,0,43.05-14,45.15-34.65Z"/><path d="M746.38,150.21l7.06-24.97c.21-.76-.14-1.56-.84-1.91h0c-.64-.32-1.41-.19-1.91.32l-18.01,18.56c-16.56,17.13-26.27,23.99-42.27-3.43-15.99-27.42-5.14-31.98,18.28-38.27l25.17-6.57c.65-.17,1.11-.76,1.11-1.43h0c0-.67-.45-1.26-1.11-1.43l-25.17-6.57c-23.42-6.28-34.27-10.85-18.28-38.27,15.99-27.42,25.13-20.56,42.27-3.43l18.01,18.56c.5.51,1.27.64,1.91.32h0c.7-.35,1.06-1.15.84-1.91l-7.06-24.97c-6.28-22.85-8-34.84,23.99-34.84s30.27,11.99,23.99,34.84l-7.06,24.97c-.21.76.14,1.56.84,1.91h0c.64.32,1.41.19,1.91-.32l18.01-18.56c16.56-17.13,26.27-23.99,42.26,3.43,15.99,27.42,5.14,31.98-18.28,38.27l-25.17,6.57c-.65.17-1.11.76-1.11,1.43h0c0,.67.45,1.26,1.11,1.43l25.17,6.57c23.42,6.28,34.27,10.85,18.28,38.27-15.99,27.42-25.13,20.56-42.26,3.43l-18.01-18.56c-.5-.51-1.27-.64-1.91-.32h0c-.7.35-1.06,1.15-.84,1.91l7.06,24.97c6.28,22.27,8,34.84-23.99,34.84s-30.27-11.99-23.99-34.84Z"/><path d="M0,4.11h0c7.33,0,13.29,5.95,13.29,13.29v178.6h0C5.95,195.99,0,190.04,0,182.71V4.11H0Z" transform="translate(13.29 200.1) rotate(180)"/><path d="M191.26,4.74h0v369.22h0c-7.33,0-13.29-5.95-13.29-13.29V18.02c0-7.33,5.95-13.29,13.29-13.29Z" transform="translate(-4.74 373.96) rotate(-90)"/></g></g></svg>