<?xml version="1.0" encoding="UTF-8"?><svg id="b" xmlns="http://www.w3.org/2000/svg" viewBox="0 0 365.98 386.84"><g id="c"><g id="d"><path d="M132.85,314.01l14.75-52.19c.45-1.58-.29-3.26-1.76-3.99h0c-1.33-.67-2.95-.39-3.99.68l-37.65,38.8c-34.62,35.82-54.92,50.15-88.35-7.16-33.43-57.31-10.75-66.86,38.21-79.99l52.61-13.73c1.36-.35,2.31-1.58,2.31-2.99h0c0-1.41-.95-2.64-2.31-2.99l-52.61-13.73c-48.95-13.13-71.64-22.68-38.21-79.99,33.43-57.31,52.53-42.98,88.35-7.16l37.65,38.8c1.04,1.07,2.65,1.35,3.99.68h0c1.47-.74,2.21-2.41,1.76-3.99l-14.75-52.19C119.71,25.07,116.13,0,182.99,0s63.28,25.07,50.15,72.83l-14.75,52.19c-.45,1.58.29,3.26,1.76,3.99h0c1.33.67,2.95.39,3.99-.68l37.65-38.8c34.62-35.82,54.92-50.15,88.35,7.16,33.43,57.31,10.75,66.86-38.21,79.99l-52.61,13.73c-1.36.36-2.31,1.58-2.31,2.99h0c0,1.41.95,2.64,2.31,2.99l52.61,13.73c48.95,13.13,71.64,22.68,38.21,79.99-33.43,57.31-52.53,42.98-88.35,7.16l-37.65-38.8c-1.04-1.07-2.65-1.35-3.99-.68h0c-1.47.74-2.21,2.41-1.76,3.99l14.75,52.19c13.13,46.56,16.72,72.83-50.15,72.83s-63.28-25.07-50.15-72.83Z" fill="#556230"/></g></g></svg>