<?xml version="1.0" encoding="UTF-8"?><svg id="b" xmlns="http://www.w3.org/2000/svg" viewBox="0 0 506.35 553.98"><g id="c"><g id="d"><path d="M79.7,30.1C88.1,11.2,103.5,0,127.3,0c20.6,0,34.56,9.08,44.69,21.6,4.47,5.53,4.23,13.5-.48,18.82l-22.16,25.03c-4.9-12.95-14.7-26.95-33.6-26.95-25.2,0-35,21-35,58.45v66.5h0c-25.71,0-46.55-20.84-46.55-46.55v-60.9c0-14.35-.7-36.05-2.1-49.7h21.99c13.45,0,24.63,10.38,25.61,23.8h0Z" fill="#556230"/><path d="M268.05,0c68.6,0,88.55,22.4,88.55,81.2v24.15c0,19.6,3.5,27.3,15.4,27.3,2.45,0,4.55-.35,6.65-.7v8.78c0,14.76-11.88,26.87-26.64,26.92-.1,0-.21,0-.31,0-19.95,0-30.1-8.75-35-25.2-12.95,18.9-36.4,27.3-65.8,27.3-46.55,0-69.3-19.6-69.3-51.8s25.2-50.75,70-50.75c26.25,0,45.85,5.95,58.8,15.75,0-38.85-11.9-50.4-47.95-50.4-27.3,0-44.8,11.9-54.95,26.95h0c-14.85-18.74-6.47-46.78,16.38-53.84,12.16-3.76,26.58-5.66,44.18-5.66ZM318.05,105.7c-8.75-5.6-23.1-10.15-42.7-10.15-28,0-39.9,8.75-39.9,22.4,0,14.35,10.85,22.4,37.45,22.4,31.15,0,43.05-14,45.15-34.65Z" fill="#556230"/><path d="M79.35,207.3c9.45-17.15,26.25-27.3,51.8-27.3,30.8,0,47.6,10.15,56.35,33.6,10.15-22.05,30.1-33.6,60.2-33.6,51.1,0,67.9,26.95,67.9,86.8v76.65h0c-25.9,0-46.9-21-46.9-46.9v-27.3c0-39.9-9.1-53.9-34.3-53.9-23.8,0-36.05,14.7-36.05,58.8v69.3h0c-25.9,0-46.9-21-46.9-46.9v-27.3c0-39.9-9.1-53.9-34.65-53.9-23.45,0-36.05,14.7-36.05,58.8v69.3h0c-25.71,0-46.55-20.84-46.55-46.55v-60.55c0-14.7-1.05-36.4-2.1-50.05h25.17c11.78,0,21.49,9.24,22.08,21h0Z" fill="#556230"/><path d="M417.1,180c65.45,0,89.25,33.95,89.25,85.05s-23.8,84.7-89.25,84.7-89.6-33.95-89.6-84.7,23.8-85.05,89.6-85.05ZM375.1,265.4c0,32.9,12.6,50.4,42,50.4s42-17.5,42-50.4-12.6-51.1-42-51.1-42,18.2-42,51.1Z" fill="#556230"/><path d="M79.7,388.35c10.15-18.2,28.35-28.35,58.8-28.35,52.15,0,69.3,27.65,69.3,87.15v76.3h0c-25.9,0-46.9-21-46.9-46.9v-27.3c0-39.2-10.15-53.55-39.55-53.55-26.6,0-40.6,14-40.6,58.8v68.95h0c-25.71,0-46.55-20.84-46.55-46.55v-61.95c0-14.35-1.05-35-2.1-48.65h24.11c12.42,0,22.71,9.65,23.5,22.05h0Z" fill="#556230"/><path d="M307.8,360c68.6,0,88.55,22.4,88.55,81.2v24.15c0,19.6,3.5,27.3,15.4,27.3,2.45,0,4.55-.35,6.65-.7v8.78c0,14.76-11.88,26.87-26.64,26.92-.1,0-.21,0-.31,0-19.95,0-30.1-8.75-35-25.2-12.95,18.9-36.4,27.3-65.8,27.3-46.55,0-69.3-19.6-69.3-51.8s25.2-50.75,70-50.75c26.25,0,45.85,5.95,58.8,15.75,0-38.85-11.9-50.4-47.95-50.4-27.3,0-44.8,11.9-54.95,26.95h0c-14.85-18.74-6.47-46.78,16.38-53.84,12.16-3.76,26.58-5.66,44.18-5.66ZM349.45,465.7c-8.75-5.6-23.1-10.15-42.7-10.15-28,0-39.9,8.75-39.9,22.4,0,14.35,10.85,22.4,37.45,22.4,31.15,0,43.05-14,45.15-34.65Z" fill="#556230"/><path d="M0,0h0C7.33,0,13.29,5.95,13.29,13.29v540.7h0C5.95,553.98,0,548.03,0,540.7V0H0Z" transform="translate(13.29 553.98) rotate(180)" fill="#556230"/><path d="M213.92,340.06h0v401.27c0,7.33-5.95,13.29-13.29,13.29h0v-401.27c0-7.33,5.95-13.29,13.29-13.29Z" transform="translate(-340.06 754.62) rotate(-90)" fill="#556230"/><path d="M451.33,519.02l2.3-8.12c.06-.22-.04-.46-.25-.56l-.07-.04c-.19-.09-.41-.05-.56.09l-5.86,6.03c-5.36,5.55-8.5,7.76-13.68-1.11-5.18-8.87-1.66-10.35,5.92-12.39l8.15-2.13c.21-.05.36-.25.36-.46h0c0-.22-.15-.41-.36-.46l-8.15-2.13c-7.58-2.03-11.09-3.51-5.92-12.39,5.18-8.87,8.13-6.66,13.68-1.11l5.86,6.03c.15.15.37.19.56.09l.07-.04c.21-.1.31-.34.25-.56l-2.3-8.12c-2.03-7.4-2.59-11.28,7.76-11.28s9.8,3.88,7.76,11.28l-2.3,8.12c-.06.22.04.46.25.56l.07.04c.19.09.41.05.56-.09l5.86-6.03c5.36-5.55,8.5-7.76,13.68,1.11,5.18,8.87,1.66,10.35-5.92,12.39l-8.15,2.13c-.21.05-.36.25-.36.46h0c0,.22.15.41.36.46l8.15,2.13c7.58,2.03,11.09,3.51,5.92,12.39-5.18,8.87-8.13,6.66-13.68,1.11l-5.86-6.03c-.15-.15-.37-.19-.56-.09l-.07.04c-.21.1-.31.34-.25.56l2.3,8.12c2.03,7.21,2.59,11.28-7.76,11.28s-9.8-3.88-7.76-11.28Z" fill="#556230"/></g></g></svg>